PathFileType	4	(X/Y/Z)	walk-thru1-2-TP.trc
DataRate	CameraRate	NumFrames	NumMarkers	Units	OrigDataRate	OrigDataStartFrame	OrigNumFrames
120.00	120.00	       4	60	mm	120.00	378	       503
Frame#	Time	Top.Head			Front.Head			Rear.Head			Jaw			C7			R.Clavicle			L.Clavicle			R.Shoulder			L.Shoulder			R.Scapula			L.Scapula			R.Scap.Inf			R.Biceps.Lateral			R.Elbow			R.Elbow.Medial			R.Forearm			R.Ulna			R.Radius			R.Wrist			R.Thumb.M1			R.Thumb.M2			R.Thumb.M3			R.Finger3.M1			R.Finger3.M2			R.Finger3.M3			L.Biceps.Lateral			L.Elbow			L.Elbow.Medial			L.Forearm			L.Ulna			L.Radius			L.Wrist			L.Thumb.M1			L.Thumb.M2			L.Thumb.M3			L.Finger3.M1			L.Finger3.M2			L.Finger3.M3			V.Sacral			R.ASIS			L.ASIS			R.Thigh			R.Thigh.Front			R.Knee			R.Knee.Medial			R.Shank			R.Ankle			R.Ankle.Medial			R.Heel			R.Toe			R.MedFoot			L.Thigh			L.Knee			L.Knee.Medial			L.Shank			L.Ankle			L.Ankle.Medial			L.Heel			L.Toe			L.MedFoot			V_mid_ASIS			V_R_Knee_JC			V_L_Knee_JC			V_R_Elbow_JC			V_L_Elbow_JC			V_R_Ankle_JC			V_L_Ankle_JC			V_R_Wrist_JC			V_L_Wrist_JC			V_R_ScaTrpz_1stMC_JC			V_R_1stMC_1stPP_JC			V_R_1stPP_1stDP_JC			V_R_LunCap_3rdMC_JC			V_R_3rdMC_3rdPP_JC			V_R_3rdPP_3rdMP_JC			V_R_3rdMP_3rdDP_JC			V_L_ScaTrpz_1stMC_JC			V_L_1stMC_1stPP_JC			V_L_1stPP_1stDP_JC			V_L_LunCap_3rdMC_JC			V_L_3rdMC_3rdPP_JC			V_L_3rdPP_3rdMP_JC			V_L_3rdMP_3rdPP_JC			V_ROOT_JC			V_R_Hip_JC			V_L_Hip_JC			V_R_GlenHum_JC			V_L_GlenHum_JC			V_ForeHead_Ctr			V_Vertex			V_Sagit_Lambdoid_Suture			V_R_FrontoTemp			V_L_FrontoTemporal			V_R_ParietalOccip			V_L_ParietalOcciptal			V_R_Temporal			V_L_Temporal			V_mid_FrontRearHead			V_mid_RLGlenHumCtrs			V_C7_vert			V_C1_vert			V_Mid_Hip			
		X1	Y1	Z1	X2	Y2	Z2	X3	Y3	Z3	X4	Y4	Z4	X5	Y5	Z5	X6	Y6	Z6	X7	Y7	Z7	X8	Y8	Z8	X9	Y9	Z9	X10	Y10	Z10	X11	Y11	Z11	X12	Y12	Z12	X13	Y13	Z13	X14	Y14	Z14	X15	Y15	Z15	X16	Y16	Z16	X17	Y17	Z17	X18	Y18	Z18	X19	Y19	Z19	X20	Y20	Z20	X21	Y21	Z21	X22	Y22	Z22	X23	Y23	Z23	X24	Y24	Z24	X25	Y25	Z25	X26	Y26	Z26	X27	Y27	Z27	X28	Y28	Z28	X29	Y29	Z29	X30	Y30	Z30	X31	Y31	Z31	X32	Y32	Z32	X33	Y33	Z33	X34	Y34	Z34	X35	Y35	Z35	X36	Y36	Z36	X37	Y37	Z37	X38	Y38	Z38	X39	Y39	Z39	X40	Y40	Z40	X41	Y41	Z41	X42	Y42	Z42	X43	Y43	Z43	X44	Y44	Z44	X45	Y45	Z45	X46	Y46	Z46	X47	Y47	Z47	X48	Y48	Z48	X49	Y49	Z49	X50	Y50	Z50	X51	Y51	Z51	X52	Y52	Z52	X53	Y53	Z53	X54	Y54	Z54	X55	Y55	Z55	X56	Y56	Z56	X57	Y57	Z57	X58	Y58	Z58	X59	Y59	Z59	X60	Y60	Z60	

378	3.142	677.70569	33.84103	1802.76196	773.70630	36.51487	1686.58862	547.68628	36.49780	1709.33850	724.26782	33.61428	1523.06445	531.36688	41.13561	1572.04272	617.83862	-79.39822	1478.01721	642.47644	144.97482	1477.64099	572.03979	-165.71692	1474.11487	580.87219	244.66791	1489.14148	471.00125	-43.74805	1490.76367	481.72513	124.58602	1491.70349	421.94592	-51.30935	1403.65161	511.16537	-223.69012	1301.74561	463.48920	-240.65952	1151.38623	450.92712	-152.27321	1134.50842	545.72058	-196.90356	1030.66431	504.16959	-237.39035	932.57080	567.39374	-182.41745	899.25555	556.93518	-222.32405	851.04431	577.12964	-178.04764	865.15369	613.27808	-151.36124	821.89081	649.67950	-152.70718	793.47150	592.19727	-226.50893	778.16595	608.20746	-188.99046	723.32153	600.21497	-142.01312	700.39478	568.23187	308.42096	1338.12488	565.95227	350.11865	1160.08838	517.63269	287.75467	1138.79626	642.89587	318.09927	1065.50244	605.38373	340.48764	969.36420	676.81598	283.24261	929.80078	679.25122	315.58292	872.00659	695.18744	269.75977	868.86426	698.07635	230.95830	822.29041	714.00415	232.37248	762.85535	707.84399	324.78110	799.93994	704.14020	303.08383	743.02026	688.12665	283.40970	697.15515	429.06277	53.05009	1095.86084	519.95465	-140.62582	1040.05286	537.93060	232.41547	1035.35242	652.77850	-133.97395	647.29346	751.85956	-66.48513	572.47900	687.32092	-119.24226	520.15735	701.95563	0.16658	515.13574	604.09637	-77.97688	357.26218	375.90430	-94.06261	207.26752	427.18158	-4.87086	198.38658	322.23944	-30.59478	219.19275	498.16446	-70.42336	79.82463	468.90225	-28.26837	129.29207	597.07288	194.63356	651.13898	626.30402	162.10326	504.27591	626.17780	48.05145	512.83789	624.27679	99.53908	307.73831	515.13184	106.07220	68.61460	548.19611	15.03909	112.44198	462.30881	43.17749	59.60016	699.47223	68.92951	48.19921	635.76929	35.70803	74.26394																																																																																																																															
379	3.150	684.43750	32.20687	1802.94019	779.20972	37.86129	1686.24512	553.89984	38.28875	1709.17090	730.21606	34.70384	1523.72070	537.53436	42.44291	1571.96826	623.87708	-80.59654	1477.69604	648.07587	145.45567	1478.75574	576.92603	-165.89586	1474.41980	586.84070	244.80125	1490.35486	477.61484	-43.10805	1490.59888	487.91830	125.22199	1492.32080	427.66782	-50.65656	1404.13647	513.40436	-222.96846	1302.49670	467.35846	-240.58669	1152.55640	455.91678	-150.14708	1134.57214	549.92999	-198.60693	1031.98254	507.67941	-237.10742	933.15771	571.68604	-183.74135	899.78455	561.35767	-222.55815	852.02716	582.77820	-179.04639	865.84985	618.97400	-153.66048	823.11420	653.19281	-151.75485	793.67108	595.45142	-226.46819	778.59698	612.61237	-188.71255	724.33600	605.45563	-142.82530	700.53748	575.51306	307.63370	1338.80151	574.12726	350.18842	1161.18542	525.71979	287.04169	1139.18091	652.13763	317.27515	1066.85547	613.54974	341.73709	970.26904	686.14221	283.69354	931.53656	688.50732	316.31891	872.78564	705.39478	269.87369	870.05048	706.31494	231.37422	823.00366	723.58368	232.53497	764.04041	716.68109	325.63104	801.30310	715.41589	304.13824	745.36176	697.87585	283.45990	698.09235	435.76553	53.60494	1096.30835	527.38037	-139.63338	1041.09924	542.94489	233.42751	1035.05347	661.92816	-133.05849	649.83514	761.56598	-66.11572	575.76782	698.23407	-119.30096	522.46100	711.06781	0.92441	517.05725	616.96515	-77.99030	357.86539	392.94415	-95.85068	203.14568	443.90622	-6.12018	195.27402	338.25806	-32.07991	213.05986	518.35364	-73.36324	79.06744	486.52368	-29.52244	127.60884	600.72296	195.85849	650.88556	627.16516	162.02026	503.85114	628.31030	47.15263	512.11316	625.81879	99.76633	307.65018	515.21588	106.18405	68.86783	548.42224	14.65730	112.52976	461.85571	43.03702	58.47146	699.35919	68.98533	48.23405	635.70074	36.02360	74.32861																																																																																																																															
380	3.158	690.17236	32.97372	1802.77734	785.33374	37.24544	1686.70630	560.20795	37.78069	1711.04858	735.84576	33.94108	1524.08777	542.80231	43.21916	1572.82617	629.35419	-80.43649	1478.64111	653.73590	144.93814	1479.47363	581.81586	-165.35786	1475.09924	592.68750	245.07381	1490.50415	483.34988	-42.61942	1491.32971	493.45807	125.47675	1493.34570	432.99994	-49.97889	1404.65491	518.39276	-222.63846	1302.91003	472.54727	-239.02132	1153.55237	461.18100	-150.16333	1134.57190	554.03290	-198.64055	1032.93530	511.92624	-236.74861	933.68481	576.07202	-182.74791	899.72980	565.41779	-223.11090	852.79810	586.41125	-179.28763	866.59711	623.54199	-153.50807	823.15417	658.68842	-154.65233	793.74896	600.45764	-227.28622	778.60315	617.38812	-189.51563	725.10315	610.57172	-143.45866	701.57971	581.05328	308.86176	1339.19800	581.81244	350.41071	1161.89929	531.82220	288.05875	1140.91479	659.60315	318.70947	1067.64050	622.46423	339.87659	971.28357	695.75153	283.47348	932.89502	697.97717	316.35117	873.77063	715.15350	270.33789	870.76434	716.79565	230.68733	824.95264	733.50873	232.91847	765.64038	725.80420	326.79495	803.21143	724.74005	304.11603	746.36475	708.19037	282.93777	700.06757	441.48383	54.38174	1096.40381	530.86188	-139.63460	1041.18359	549.27289	232.17790	1035.61487	670.62164	-133.98013	651.51190	770.73248	-65.49487	578.57135	708.02039	-119.29792	524.93964	720.52570	1.23161	519.22491	630.86823	-78.66309	358.24966	409.58325	-97.83745	199.29756	460.06970	-6.96937	190.92860	354.97760	-32.99402	205.99982	538.75653	-76.29472	77.64943	505.61188	-31.19130	125.08435	603.15625	196.03537	651.45099	629.85327	161.41943	503.44196	630.16138	47.52960	511.85437	626.69690	100.00316	307.84964	515.38507	106.20269	68.81059	548.39435	15.51426	112.63605	463.09354	43.18962	59.62701	699.34784	69.11622	48.32049	635.75653	36.64399	73.90940																																																																																																																															
381	3.167	696.57190	32.42106	1804.15100	790.82489	37.00035	1687.31897	566.08722	37.33630	1710.71338	741.41150	34.27324	1524.38916	548.88928	40.83557	1573.19373	635.49359	-80.26592	1478.84460	659.92584	145.97449	1479.96448	587.35583	-165.12766	1475.93188	598.44403	245.75600	1490.88062	488.45435	-42.45642	1491.73792	499.03461	125.75699	1493.32788	438.35892	-49.24637	1405.44995	522.80273	-221.45660	1303.78259	476.34091	-239.41411	1153.74695	464.78864	-149.05794	1135.56543	559.18256	-198.72940	1034.39807	516.22546	-237.15823	935.09210	580.46631	-183.60376	901.10492	569.71680	-222.78517	853.45380	591.88440	-181.06177	867.21124	630.09210	-154.90558	823.87109	663.64862	-154.86240	794.09943	604.25421	-228.28006	779.19910	621.53967	-191.15930	726.20905	614.37567	-144.90083	701.21710	588.02570	308.06445	1339.60498	588.76880	350.37860	1162.33118	539.86224	287.71927	1140.35205	667.64191	318.09253	1068.27185	630.57281	341.08469	971.92065	703.99603	282.93576	933.62012	706.94434	315.49341	874.80603	723.96375	270.21063	873.30475	726.62122	231.15703	824.88562	743.97437	232.95540	766.73962	736.39545	326.63217	804.50061	734.17529	303.63766	747.14484	720.07312	282.06476	701.67517	446.52097	54.58892	1096.91382	534.10730	-139.91150	1041.43848	555.32440	232.33023	1035.96570	679.12775	-133.03967	652.76038	779.89502	-64.37560	580.81903	717.21417	-118.37518	526.20343	729.94287	-0.12455	521.02063	642.92114	-80.14349	358.48050	426.62985	-99.44337	193.55777	477.15891	-8.79284	186.95015	371.74982	-35.33846	199.63571	559.33551	-77.17152	75.82934	524.40961	-32.25151	121.49683	605.85760	196.08286	651.07861	630.89954	162.22392	503.11609	631.88336	46.50812	511.87747	627.71301	99.46759	307.34253	515.11926	106.61057	69.37783	549.39679	15.51931	113.22166	463.37454	43.29919	59.79576	699.20050	69.20350	48.24383	635.75769	36.53518	74.22844																																																																																																																															
